<svg preserveAspectRatio="none" overflow="visible" style="display: block;" width="17.9929" height="17.9929" viewBox="0 0 17.9929 17.9929" fill="none" xmlns="http://www.w3.org/2000/svg">
<g id="Icon" clip-path="url(#clip0_0_15)">
<path id="Vector" d="M7.70007 15.8834C7.83168 16.1113 8.02096 16.3006 8.24889 16.4322C8.47682 16.5638 8.73537 16.6331 8.99856 16.6331C9.26175 16.6331 9.5203 16.5638 9.74823 16.4322C9.97616 16.3006 10.1654 16.1113 10.297 15.8834" stroke="#A8BFCF" stroke-width="1.49941" stroke-linecap="round" stroke-linejoin="round"/>
<path id="Vector_2" d="M2.44758 11.6296C2.34965 11.737 2.28501 11.8705 2.26155 12.0139C2.23808 12.1573 2.2568 12.3044 2.31542 12.4374C2.37403 12.5703 2.47003 12.6834 2.59172 12.7628C2.71341 12.8422 2.85556 12.8845 3.00087 12.8846H14.9961C15.1414 12.8847 15.2836 12.8425 15.4054 12.7633C15.5271 12.684 15.6233 12.5711 15.682 12.4382C15.7408 12.3053 15.7597 12.1582 15.7364 12.0148C15.7131 11.8714 15.6487 11.7378 15.5509 11.6304C14.5538 10.6025 13.4967 9.51021 13.4967 6.13729C13.4967 4.94429 13.0228 3.80015 12.1792 2.95657C11.3356 2.11299 10.1915 1.63907 8.9985 1.63907C7.8055 1.63907 6.66135 2.11299 5.81777 2.95657C4.97419 3.80015 4.50027 4.94429 4.50027 6.13729C4.50027 9.51021 3.44244 10.6025 2.44758 11.6296Z" stroke="#A8BFCF" stroke-width="1.49941" stroke-linecap="round" stroke-linejoin="round"/>
</g>
<defs>
<clipPath id="clip0_0_15">
<rect width="17.9929" height="17.9929" fill="white"/>
</clipPath>
</defs>
</svg>
