<svg preserveAspectRatio="none" overflow="visible" style="display: block;" width="13.9957" height="13.9957" viewBox="0 0 13.9957 13.9957" fill="none" xmlns="http://www.w3.org/2000/svg">
<g id="Icon" clip-path="url(#clip0_0_15)">
<path id="Vector" d="M1.20246 6.79491C1.15386 6.92584 1.15386 7.06986 1.20246 7.20079C1.67581 8.34852 2.47929 9.32986 3.51104 10.0204C4.54279 10.7109 5.75634 11.0796 6.99785 11.0796C8.23936 11.0796 9.45291 10.7109 10.4847 10.0204C11.5164 9.32986 12.3199 8.34852 12.7932 7.20079C12.8418 7.06986 12.8418 6.92584 12.7932 6.79491C12.3199 5.64718 11.5164 4.66584 10.4847 3.9753C9.45291 3.28477 8.23936 2.91613 6.99785 2.91613C5.75634 2.91613 4.54279 3.28477 3.51104 3.9753C2.47929 4.66584 1.67581 5.64718 1.20246 6.79491Z" stroke="#6B8AA0" stroke-width="1.16631" stroke-linecap="round" stroke-linejoin="round"/>
<path id="Vector_2" d="M6.99785 8.74731C7.96405 8.74731 8.74731 7.96405 8.74731 6.99785C8.74731 6.03165 7.96405 5.24839 6.99785 5.24839C6.03165 5.24839 5.24839 6.03165 5.24839 6.99785C5.24839 7.96405 6.03165 8.74731 6.99785 8.74731Z" stroke="#6B8AA0" stroke-width="1.16631" stroke-linecap="round" stroke-linejoin="round"/>
</g>
<defs>
<clipPath id="clip0_0_15">
<rect width="13.9957" height="13.9957" fill="white"/>
</clipPath>
</defs>
</svg>
