<svg preserveAspectRatio="none" overflow="visible" style="display: block;" width="15.9998" height="15.9998" viewBox="0 0 15.9998 15.9998" fill="none" xmlns="http://www.w3.org/2000/svg">
<g id="Icon">
<path id="Vector" d="M13.3332 5.33327H2.66663C2.29845 5.33327 1.99997 5.63174 1.99997 5.99993V7.33324C1.99997 7.70143 2.29845 7.9999 2.66663 7.9999H13.3332C13.7014 7.9999 13.9998 7.70143 13.9998 7.33324V5.99993C13.9998 5.63174 13.7014 5.33327 13.3332 5.33327Z" stroke="#6B8AA0" stroke-width="1.33332" stroke-linecap="round" stroke-linejoin="round"/>
<path id="Vector_2" d="M7.9999 5.33327V13.9998" stroke="#6B8AA0" stroke-width="1.33332" stroke-linecap="round" stroke-linejoin="round"/>
<path id="Vector_3" d="M12.6665 7.9999V12.6665C12.6665 13.0201 12.526 13.3593 12.276 13.6093C12.0259 13.8594 11.6868 13.9998 11.3332 13.9998H4.66661C4.31299 13.9998 3.97386 13.8594 3.72381 13.6093C3.47377 13.3593 3.33329 13.0201 3.33329 12.6665V7.9999" stroke="#6B8AA0" stroke-width="1.33332" stroke-linecap="round" stroke-linejoin="round"/>
<path id="Vector_4" d="M4.99994 5.33327C4.55792 5.33327 4.134 5.15767 3.82144 4.84512C3.50888 4.53256 3.33329 4.10864 3.33329 3.66662C3.33329 3.2246 3.50888 2.80068 3.82144 2.48812C4.134 2.17557 4.55792 1.99997 4.99994 1.99997C5.64305 1.98877 6.27327 2.30081 6.80841 2.8954C7.34354 3.49 7.75875 4.33955 7.9999 5.33327C8.24105 4.33955 8.65626 3.49 9.19139 2.8954C9.72653 2.30081 10.3567 1.98877 10.9999 1.99997C11.4419 1.99997 11.8658 2.17557 12.1784 2.48812C12.4909 2.80068 12.6665 3.2246 12.6665 3.66662C12.6665 4.10864 12.4909 4.53256 12.1784 4.84512C11.8658 5.15767 11.4419 5.33327 10.9999 5.33327" stroke="#6B8AA0" stroke-width="1.33332" stroke-linecap="round" stroke-linejoin="round"/>
</g>
</svg>
